<mxfile host="app.diagrams.net" modified="2023-12-11T14:17:14.393Z" agent="Mozilla/5.0 (Windows NT 10.0; Win64; x64) AppleWebKit/537.36 (KHTML, like Gecko) Chrome/119.0.0.0 Safari/537.36" etag="dpXPtK-YvvCPnG0VLpgk" version="22.1.7" type="device">
  <diagram name="Halaman-1" id="emG7S_QxiJmAhHWOF7hX">
    <mxGraphModel dx="1518" dy="721" grid="1" gridSize="10" guides="1" tooltips="1" connect="1" arrows="1" fold="1" page="1" pageScale="1" pageWidth="827" pageHeight="1169" math="0" shadow="0">
      <root>
        <mxCell id="0" />
        <mxCell id="1" parent="0" />
        <mxCell id="mMw-WOyp1u7bdj_XgIaY-1" value="" style="shape=table;startSize=0;container=1;collapsible=0;childLayout=tableLayout;" vertex="1" parent="1">
          <mxGeometry x="20" y="80" width="740" height="630" as="geometry" />
        </mxCell>
        <mxCell id="mMw-WOyp1u7bdj_XgIaY-2" value="" style="shape=tableRow;horizontal=0;startSize=0;swimlaneHead=0;swimlaneBody=0;strokeColor=inherit;top=0;left=0;bottom=0;right=0;collapsible=0;dropTarget=0;fillColor=none;points=[[0,0.5],[1,0.5]];portConstraint=eastwest;" vertex="1" parent="mMw-WOyp1u7bdj_XgIaY-1">
          <mxGeometry width="740" height="51" as="geometry" />
        </mxCell>
        <mxCell id="mMw-WOyp1u7bdj_XgIaY-3" value="&lt;font style=&quot;font-size: 18px;&quot;&gt;Player&lt;/font&gt;" style="shape=partialRectangle;html=1;whiteSpace=wrap;connectable=0;strokeColor=inherit;overflow=hidden;fillColor=none;top=0;left=0;bottom=0;right=0;pointerEvents=1;" vertex="1" parent="mMw-WOyp1u7bdj_XgIaY-2">
          <mxGeometry width="370" height="51" as="geometry">
            <mxRectangle width="370" height="51" as="alternateBounds" />
          </mxGeometry>
        </mxCell>
        <mxCell id="mMw-WOyp1u7bdj_XgIaY-4" value="&lt;font size=&quot;3&quot;&gt;Sistem&lt;/font&gt;" style="shape=partialRectangle;html=1;whiteSpace=wrap;connectable=0;strokeColor=inherit;overflow=hidden;fillColor=none;top=0;left=0;bottom=0;right=0;pointerEvents=1;" vertex="1" parent="mMw-WOyp1u7bdj_XgIaY-2">
          <mxGeometry x="370" width="370" height="51" as="geometry">
            <mxRectangle width="370" height="51" as="alternateBounds" />
          </mxGeometry>
        </mxCell>
        <mxCell id="mMw-WOyp1u7bdj_XgIaY-5" value="" style="shape=tableRow;horizontal=0;startSize=0;swimlaneHead=0;swimlaneBody=0;strokeColor=inherit;top=0;left=0;bottom=0;right=0;collapsible=0;dropTarget=0;fillColor=none;points=[[0,0.5],[1,0.5]];portConstraint=eastwest;" vertex="1" parent="mMw-WOyp1u7bdj_XgIaY-1">
          <mxGeometry y="51" width="740" height="579" as="geometry" />
        </mxCell>
        <mxCell id="mMw-WOyp1u7bdj_XgIaY-6" value="" style="shape=partialRectangle;html=1;whiteSpace=wrap;connectable=0;strokeColor=inherit;overflow=hidden;fillColor=none;top=0;left=0;bottom=0;right=0;pointerEvents=1;" vertex="1" parent="mMw-WOyp1u7bdj_XgIaY-5">
          <mxGeometry width="370" height="579" as="geometry">
            <mxRectangle width="370" height="579" as="alternateBounds" />
          </mxGeometry>
        </mxCell>
        <mxCell id="mMw-WOyp1u7bdj_XgIaY-7" value="" style="shape=partialRectangle;html=1;whiteSpace=wrap;connectable=0;strokeColor=inherit;overflow=hidden;fillColor=none;top=0;left=0;bottom=0;right=0;pointerEvents=1;" vertex="1" parent="mMw-WOyp1u7bdj_XgIaY-5">
          <mxGeometry x="370" width="370" height="579" as="geometry">
            <mxRectangle width="370" height="579" as="alternateBounds" />
          </mxGeometry>
        </mxCell>
        <mxCell id="mMw-WOyp1u7bdj_XgIaY-8" value="&lt;font style=&quot;font-size: 24px;&quot;&gt;&lt;b&gt;Login/Register&lt;/b&gt;&lt;/font&gt;" style="text;html=1;strokeColor=none;fillColor=none;align=center;verticalAlign=middle;whiteSpace=wrap;rounded=0;" vertex="1" parent="1">
          <mxGeometry x="384" y="30" width="60" height="30" as="geometry" />
        </mxCell>
        <mxCell id="mMw-WOyp1u7bdj_XgIaY-14" style="edgeStyle=orthogonalEdgeStyle;rounded=0;orthogonalLoop=1;jettySize=auto;html=1;exitX=1;exitY=0.5;exitDx=0;exitDy=0;entryX=0;entryY=0.5;entryDx=0;entryDy=0;" edge="1" parent="1" source="mMw-WOyp1u7bdj_XgIaY-9" target="mMw-WOyp1u7bdj_XgIaY-13">
          <mxGeometry relative="1" as="geometry" />
        </mxCell>
        <mxCell id="mMw-WOyp1u7bdj_XgIaY-9" value="Player punya akun?" style="rounded=1;whiteSpace=wrap;html=1;" vertex="1" parent="1">
          <mxGeometry x="50" y="230" width="120" height="60" as="geometry" />
        </mxCell>
        <mxCell id="mMw-WOyp1u7bdj_XgIaY-10" value="" style="ellipse;html=1;shape=endState;fillColor=#000000;strokeColor=#ff0000;" vertex="1" parent="1">
          <mxGeometry x="439" y="660" width="30" height="30" as="geometry" />
        </mxCell>
        <mxCell id="mMw-WOyp1u7bdj_XgIaY-15" style="edgeStyle=orthogonalEdgeStyle;rounded=0;orthogonalLoop=1;jettySize=auto;html=1;exitX=0.5;exitY=1;exitDx=0;exitDy=0;entryX=0.5;entryY=0;entryDx=0;entryDy=0;" edge="1" parent="1" source="mMw-WOyp1u7bdj_XgIaY-12" target="mMw-WOyp1u7bdj_XgIaY-9">
          <mxGeometry relative="1" as="geometry" />
        </mxCell>
        <mxCell id="mMw-WOyp1u7bdj_XgIaY-12" value="" style="ellipse;whiteSpace=wrap;html=1;aspect=fixed;fillColor=#141414;" vertex="1" parent="1">
          <mxGeometry x="95" y="150" width="30" height="30" as="geometry" />
        </mxCell>
        <mxCell id="mMw-WOyp1u7bdj_XgIaY-18" style="edgeStyle=orthogonalEdgeStyle;rounded=0;orthogonalLoop=1;jettySize=auto;html=1;exitX=0.5;exitY=1;exitDx=0;exitDy=0;entryX=0.75;entryY=0;entryDx=0;entryDy=0;" edge="1" parent="1" source="mMw-WOyp1u7bdj_XgIaY-13" target="mMw-WOyp1u7bdj_XgIaY-17">
          <mxGeometry relative="1" as="geometry" />
        </mxCell>
        <mxCell id="mMw-WOyp1u7bdj_XgIaY-19" style="edgeStyle=orthogonalEdgeStyle;rounded=0;orthogonalLoop=1;jettySize=auto;html=1;exitX=1;exitY=0.5;exitDx=0;exitDy=0;entryX=0;entryY=0.5;entryDx=0;entryDy=0;" edge="1" parent="1" source="mMw-WOyp1u7bdj_XgIaY-13" target="mMw-WOyp1u7bdj_XgIaY-16">
          <mxGeometry relative="1" as="geometry" />
        </mxCell>
        <mxCell id="mMw-WOyp1u7bdj_XgIaY-13" value="" style="rhombus;whiteSpace=wrap;html=1;" vertex="1" parent="1">
          <mxGeometry x="260" y="220" width="80" height="80" as="geometry" />
        </mxCell>
        <mxCell id="mMw-WOyp1u7bdj_XgIaY-25" style="edgeStyle=orthogonalEdgeStyle;rounded=0;orthogonalLoop=1;jettySize=auto;html=1;exitX=0.5;exitY=0;exitDx=0;exitDy=0;entryX=0.75;entryY=0;entryDx=0;entryDy=0;" edge="1" parent="1" source="mMw-WOyp1u7bdj_XgIaY-16" target="mMw-WOyp1u7bdj_XgIaY-9">
          <mxGeometry relative="1" as="geometry" />
        </mxCell>
        <mxCell id="mMw-WOyp1u7bdj_XgIaY-16" value="Sistem merekomendasikan untuk regsitrasi" style="rounded=1;whiteSpace=wrap;html=1;" vertex="1" parent="1">
          <mxGeometry x="530" y="230" width="120" height="60" as="geometry" />
        </mxCell>
        <mxCell id="mMw-WOyp1u7bdj_XgIaY-28" style="edgeStyle=orthogonalEdgeStyle;rounded=0;orthogonalLoop=1;jettySize=auto;html=1;exitX=1;exitY=0.5;exitDx=0;exitDy=0;entryX=0;entryY=0.5;entryDx=0;entryDy=0;" edge="1" parent="1" source="mMw-WOyp1u7bdj_XgIaY-17" target="mMw-WOyp1u7bdj_XgIaY-24">
          <mxGeometry relative="1" as="geometry" />
        </mxCell>
        <mxCell id="mMw-WOyp1u7bdj_XgIaY-17" value="Player memasukan email dan password" style="rounded=1;whiteSpace=wrap;html=1;" vertex="1" parent="1">
          <mxGeometry x="50" y="340" width="120" height="60" as="geometry" />
        </mxCell>
        <mxCell id="mMw-WOyp1u7bdj_XgIaY-20" value="Yes" style="text;html=1;strokeColor=none;fillColor=none;align=center;verticalAlign=middle;whiteSpace=wrap;rounded=0;" vertex="1" parent="1">
          <mxGeometry x="290" y="300" width="60" height="30" as="geometry" />
        </mxCell>
        <mxCell id="mMw-WOyp1u7bdj_XgIaY-21" value="No" style="text;html=1;strokeColor=none;fillColor=none;align=center;verticalAlign=middle;whiteSpace=wrap;rounded=0;" vertex="1" parent="1">
          <mxGeometry x="315" y="230" width="60" height="30" as="geometry" />
        </mxCell>
        <mxCell id="mMw-WOyp1u7bdj_XgIaY-30" style="edgeStyle=orthogonalEdgeStyle;rounded=0;orthogonalLoop=1;jettySize=auto;html=1;exitX=0.5;exitY=1;exitDx=0;exitDy=0;entryX=1;entryY=0.5;entryDx=0;entryDy=0;" edge="1" parent="1" source="mMw-WOyp1u7bdj_XgIaY-24" target="mMw-WOyp1u7bdj_XgIaY-29">
          <mxGeometry relative="1" as="geometry" />
        </mxCell>
        <mxCell id="mMw-WOyp1u7bdj_XgIaY-24" value="Sistem melakukan validasi terhadap akun player" style="rounded=1;whiteSpace=wrap;html=1;" vertex="1" parent="1">
          <mxGeometry x="530" y="340" width="120" height="60" as="geometry" />
        </mxCell>
        <mxCell id="mMw-WOyp1u7bdj_XgIaY-32" style="edgeStyle=orthogonalEdgeStyle;rounded=0;orthogonalLoop=1;jettySize=auto;html=1;exitX=0;exitY=0.5;exitDx=0;exitDy=0;entryX=0.5;entryY=0;entryDx=0;entryDy=0;" edge="1" parent="1" source="mMw-WOyp1u7bdj_XgIaY-29" target="mMw-WOyp1u7bdj_XgIaY-31">
          <mxGeometry relative="1" as="geometry" />
        </mxCell>
        <mxCell id="mMw-WOyp1u7bdj_XgIaY-34" style="edgeStyle=orthogonalEdgeStyle;rounded=0;orthogonalLoop=1;jettySize=auto;html=1;exitX=0.5;exitY=0;exitDx=0;exitDy=0;entryX=0.5;entryY=1;entryDx=0;entryDy=0;" edge="1" parent="1" source="mMw-WOyp1u7bdj_XgIaY-29" target="mMw-WOyp1u7bdj_XgIaY-17">
          <mxGeometry relative="1" as="geometry" />
        </mxCell>
        <mxCell id="mMw-WOyp1u7bdj_XgIaY-29" value="" style="rhombus;whiteSpace=wrap;html=1;" vertex="1" parent="1">
          <mxGeometry x="480" y="440" width="80" height="80" as="geometry" />
        </mxCell>
        <mxCell id="mMw-WOyp1u7bdj_XgIaY-37" style="edgeStyle=orthogonalEdgeStyle;rounded=0;orthogonalLoop=1;jettySize=auto;html=1;exitX=0.5;exitY=1;exitDx=0;exitDy=0;entryX=0.5;entryY=0;entryDx=0;entryDy=0;" edge="1" parent="1" source="mMw-WOyp1u7bdj_XgIaY-31" target="mMw-WOyp1u7bdj_XgIaY-10">
          <mxGeometry relative="1" as="geometry" />
        </mxCell>
        <mxCell id="mMw-WOyp1u7bdj_XgIaY-31" value="Masuk ke dalam game" style="rounded=1;whiteSpace=wrap;html=1;" vertex="1" parent="1">
          <mxGeometry x="394" y="540" width="120" height="60" as="geometry" />
        </mxCell>
        <mxCell id="mMw-WOyp1u7bdj_XgIaY-35" value="Yes" style="text;html=1;strokeColor=none;fillColor=none;align=center;verticalAlign=middle;whiteSpace=wrap;rounded=0;" vertex="1" parent="1">
          <mxGeometry x="394" y="490" width="60" height="30" as="geometry" />
        </mxCell>
        <mxCell id="mMw-WOyp1u7bdj_XgIaY-36" value="No" style="text;html=1;strokeColor=none;fillColor=none;align=center;verticalAlign=middle;whiteSpace=wrap;rounded=0;" vertex="1" parent="1">
          <mxGeometry x="444" y="390" width="60" height="30" as="geometry" />
        </mxCell>
      </root>
    </mxGraphModel>
  </diagram>
</mxfile>
